<?xml version="1.0" encoding="utf-8"?>
<!-- Generator: Adobe Illustrator 22.1.0, SVG Export Plug-In . SVG Version: 6.00 Build 0)  -->
<svg version="1.1" id="Capa_1" xmlns="http://www.w3.org/2000/svg" xmlns:xlink="http://www.w3.org/1999/xlink" x="0px" y="0px"
	 viewBox="0 0 60.8817 43.6145" style="enable-background:new 0 0 60.8817 43.6145;" xml:space="preserve">
<style type="text/css">
	.st0{fill:#00E3D1;}
</style>
<g>
	<path class="st0" d="M50.8658,14.8876l10.0159-4.8425l-1.8933-3.916L18.6849,25.6151l1.8933,3.916l26.3197-12.725
		c0.3847,1.2896,0.6353,2.6188,0.715,3.982c0.5619,9.6096-6.7988,17.8845-16.408,18.4464
		C21.5971,39.799,13.3204,32.436,12.7585,22.827c-0.562-9.6096,6.7987-17.8845,16.4077-18.4467
		c2.3539-0.1371,4.6633,0.1896,6.863,0.9722c1.0762,0.3826,2.1206,0.8751,3.1046,1.4634c0.5695,0.3408,1.1275,0.7197,1.6584,1.1257
		l2.6434-3.4542c-0.6618-0.5064-1.3578-0.9788-2.069-1.4045c-1.2292-0.7352-2.5348-1.3505-3.8798-1.8287
		c-2.7517-0.9794-5.6373-1.387-8.5746-1.2164C16.9086,0.7401,7.7141,11.0771,8.416,23.081
		c0.6772,11.573,10.308,20.5345,21.7555,20.5336c0.4263,0,0.8568-0.0124,1.2874-0.0376
		c12.0038-0.7021,21.1984-11.039,20.4966-23.0429C51.8421,18.5959,51.4734,16.7053,50.8658,14.8876z"/>
	
		<rect x="0.6106" y="32.9649" transform="matrix(0.9003 -0.4353 0.4353 0.9003 -14.8988 5.2368)" class="st0" width="6.7421" height="4.3496"/>
</g>
</svg>
