<?xml version="1.0" encoding="utf-8"?>
<!-- Generator: Adobe Illustrator 22.1.0, SVG Export Plug-In . SVG Version: 6.00 Build 0)  -->
<svg version="1.1" id="Capa_1" xmlns="http://www.w3.org/2000/svg" xmlns:xlink="http://www.w3.org/1999/xlink" x="0px" y="0px"
	 viewBox="0 0 177.7 43.6" style="enable-background:new 0 0 177.7 43.6;" xml:space="preserve">
<style type="text/css">
	.st0{fill:#01004E;}
</style>
<g>
	<g>
		<g>
			<g>
				<g>
					<g>
						<path class="st0" d="M30.2,43.6c-11.4,0-21.1-9-21.8-20.5c-0.7-12,8.5-22.3,20.5-23c2.9-0.2,5.8,0.2,8.6,1.2
							c1.3,0.5,2.7,1.1,3.9,1.8c0.7,0.4,1.4,0.9,2.1,1.4l-2.6,3.5c-0.5-0.4-1.1-0.8-1.7-1.1c-1-0.6-2-1.1-3.1-1.5
							c-2.2-0.8-4.5-1.1-6.9-1c-9.6,0.6-17,8.8-16.4,18.4c0.6,9.6,8.8,17,18.4,16.4c9.6-0.6,17-8.8,16.4-18.4
							c-0.1-2.1-0.6-4.2-1.5-6.1l4-1.8c1.1,2.4,1.7,4.9,1.8,7.6c0.7,12-8.5,22.3-20.5,23C31,43.6,30.6,43.6,30.2,43.6z"/>
					</g>
					<g>
						
							<rect x="17.4" y="15.7" transform="matrix(0.9003 -0.4353 0.4353 0.9003 -3.7945 19.095)" class="st0" width="44.8" height="4.3"/>
					</g>
					<g>
						
							<rect x="0.6" y="33" transform="matrix(0.9003 -0.4353 0.4353 0.9003 -14.8989 5.2369)" class="st0" width="6.7" height="4.3"/>
					</g>
				</g>
				<g>
					<g>
						<path class="st0" d="M86.9,12.8v15.8c0,1.1-0.1,2.1-0.3,3c-0.2,0.9-0.5,1.8-1,2.5c-0.5,0.8-1,1.4-1.7,2
							c-0.7,0.5-1.5,1-2.5,1.2c-1,0.3-2.2,0.4-3.4,0.4c-1.3,0-2.6-0.2-3.8-0.5c-1.2-0.3-2.3-0.8-3.3-1.4l1-3.6c1.1,0.6,2.1,1,3,1.3
							c0.9,0.3,1.9,0.4,3,0.4c1.7,0,3-0.4,3.9-1.2c0.9-0.8,1.4-1.9,1.4-3.1V28h-0.1c-1.4,1.4-3.2,2.1-5.3,2.1
							c-1.6,0-3.1-0.4-4.4-1.1c-1.3-0.7-2.3-1.7-3.1-3.1c-0.7-1.3-1.1-2.8-1.1-4.6c0-1.7,0.4-3.2,1.1-4.6c0.7-1.4,1.7-2.4,3-3.2
							c1.3-0.8,2.7-1.1,4.3-1.1c1,0,2,0.2,2.9,0.5c0.9,0.4,1.8,0.9,2.5,1.6h0.1v-1.8H86.9z M81.7,25c0.9-1,1.4-2.2,1.4-3.7
							c0-0.7-0.1-1.4-0.4-2.1c-0.3-0.6-0.6-1.2-1-1.6c-0.4-0.4-1-0.8-1.6-1c-0.6-0.2-1.3-0.4-2-0.4c-1.5,0-2.7,0.5-3.6,1.4
							c-0.9,0.9-1.4,2.2-1.4,3.6c0,1.5,0.5,2.8,1.4,3.7s2.1,1.4,3.6,1.4C79.6,26.4,80.8,25.9,81.7,25z"/>
						<path class="st0" d="M100.6,12.6v4.5c-0.5,0-0.9-0.1-1.2-0.1c-1,0-1.9,0.2-2.6,0.7c-0.7,0.4-1.3,1-1.7,1.8
							c-0.4,0.8-0.6,1.6-0.6,2.6v8.3h-4V12.8h4v2.6h0.1c0.7-0.9,1.5-1.7,2.5-2.2c0.9-0.5,2-0.7,3-0.7
							C100.4,12.6,100.5,12.6,100.6,12.6z"/>
						<path class="st0" d="M119.7,12.8v17.6h-3.9v-2.4h-0.1c-1.3,1.8-3.2,2.6-5.6,2.6c-1,0-1.9-0.1-2.8-0.4
							c-0.9-0.3-1.7-0.7-2.4-1.2c-0.7-0.5-1.3-1.2-1.8-1.9c-0.5-0.7-0.9-1.6-1.2-2.5c-0.3-0.9-0.4-2-0.4-3c0-1.3,0.2-2.5,0.7-3.7
							c0.4-1.1,1-2.1,1.8-2.9c0.8-0.8,1.6-1.4,2.7-1.9c1-0.5,2.2-0.7,3.4-0.7c2.3,0,4.1,0.8,5.4,2.4h0.1v-2.1H119.7z M114.4,25.6
							c1-1,1.5-2.3,1.5-3.8c0-1.6-0.5-2.9-1.4-3.9s-2.1-1.6-3.6-1.6c-0.7,0-1.4,0.1-2,0.4c-0.6,0.3-1.2,0.6-1.6,1.1
							c-0.5,0.5-0.8,1-1.1,1.7c-0.3,0.7-0.4,1.5-0.4,2.3c0,1.6,0.5,2.8,1.4,3.8c0.9,1,2.2,1.5,3.6,1.5
							C112.2,27,113.4,26.5,114.4,25.6z"/>
						<path class="st0" d="M139.2,12.8l-7,17.6h-3.9l-7-17.6h4.3l4.6,12.5h0.1l4.5-12.5H139.2z"/>
						<path class="st0" d="M141.5,9.4c-0.5-0.5-0.8-1.2-0.8-1.9c0-0.7,0.3-1.4,0.8-1.9c0.5-0.5,1.2-0.8,1.9-0.8
							c0.7,0,1.4,0.3,1.9,0.8c0.5,0.5,0.8,1.2,0.8,1.9c0,0.5-0.1,0.9-0.4,1.3c-0.2,0.4-0.6,0.7-1,1c-0.4,0.2-0.9,0.4-1.3,0.4
							C142.7,10.2,142,10,141.5,9.4z M141.4,12.8h4v17.6h-4V12.8z"/>
						<path class="st0" d="M151,29.2c-0.9-1-1.3-2.4-1.3-4.4v-8.6h-2.1v-3.4h2.1V7l4-0.4v6.3h5.2v3.4h-5.2v8.2
							c0,0.9,0.1,1.5,0.4,1.9c0.3,0.4,0.7,0.6,1.3,0.6c0.8,0,1.7-0.3,2.6-0.8l1.1,3.5c-0.6,0.3-1.3,0.6-1.9,0.8
							c-0.7,0.2-1.5,0.3-2.5,0.3C153,30.7,151.8,30.2,151,29.2z"/>
						<path class="st0" d="M177.7,12.8L168,37.5h-4.2l3.2-8.1l-7.1-16.6h4.2l4.9,11.9h0l4.5-11.9H177.7z"/>
					</g>
				</g>
			</g>
		</g>
	</g>
</g>
</svg>
